<?xml version="1.0" encoding="UTF-8" standalone="no"?>
<!DOCTYPE svg PUBLIC "-//W3C//DTD SVG 1.1//EN"
 "http://www.w3.org/Graphics/SVG/1.1/DTD/svg11.dtd">
<!-- Generated by graphviz version 2.40.1 (20161225.0304)
 -->
<!-- Title: %3 Pages: 1 -->
<svg width="1371pt" height="2984pt"
 viewBox="0.00 0.00 1370.99 2983.53" xmlns="http://www.w3.org/2000/svg" xmlns:xlink="http://www.w3.org/1999/xlink">
<g id="graph0" class="graph" transform="scale(1 1) rotate(0) translate(4 2979.5255)">
<title>%3</title>
<polygon fill="#ffffff" stroke="transparent" points="-4,4 -4,-2979.5255 1366.994,-2979.5255 1366.994,4 -4,4"/>
<!-- ../prueba/9326871.10.jpg -->
<g id="node1" class="node">
<title>../prueba/9326871.10.jpg</title>
<ellipse fill="none" stroke="#000000" cx="754.7339" cy="-2868.0453" rx="96.7474" ry="107.4605"/>
<image xlink:href="../prueba/9326871.10.jpg" width="180px" height="200px" preserveAspectRatio="xMinYMin meet" x="664.734" y="-2968.05"/>
</g>
<!-- ../prueba/9326871.11.jpg -->
<g id="node2" class="node">
<title>../prueba/9326871.11.jpg</title>
<ellipse fill="none" stroke="#000000" cx="591.7339" cy="-2617.0848" rx="96.7474" ry="107.4605"/>
<image xlink:href="../prueba/9326871.11.jpg" width="180px" height="200px" preserveAspectRatio="xMinYMin meet" x="501.734" y="-2717.08"/>
</g>
<!-- ../prueba/9326871.10.jpg&#45;&gt;../prueba/9326871.11.jpg -->
<g id="edge1" class="edge">
<title>../prueba/9326871.10.jpg&#45;&gt;../prueba/9326871.11.jpg</title>
<path fill="none" stroke="#000000" d="M697.9532,-2780.6238C683.7774,-2758.7983 668.4995,-2735.2759 654.0711,-2713.0614"/>
<polygon fill="#000000" stroke="#000000" points="656.9692,-2711.0977 648.5869,-2704.6178 651.0987,-2714.9106 656.9692,-2711.0977"/>
</g>
<!-- ../prueba/9326871.12.jpg -->
<g id="node3" class="node">
<title>../prueba/9326871.12.jpg</title>
<ellipse fill="none" stroke="#000000" cx="591.7339" cy="-2366.1244" rx="96.7474" ry="107.4605"/>
<image xlink:href="../prueba/9326871.12.jpg" width="180px" height="200px" preserveAspectRatio="xMinYMin meet" x="501.734" y="-2466.12"/>
</g>
<!-- ../prueba/9326871.10.jpg&#45;&gt;../prueba/9326871.12.jpg -->
<g id="edge2" class="edge">
<title>../prueba/9326871.10.jpg&#45;&gt;../prueba/9326871.12.jpg</title>
<path fill="none" stroke="#000000" d="M743.3746,-2760.9436C732.9274,-2672.241 716.2802,-2553.8414 697.7339,-2509.6046 689.3746,-2489.6661 677.6922,-2469.9325 665.1206,-2451.7747"/>
<polygon fill="#000000" stroke="#000000" points="667.9282,-2449.6831 659.2907,-2443.5477 662.2169,-2453.7304 667.9282,-2449.6831"/>
</g>
<!-- ../prueba/9326871.14.jpg -->
<g id="node4" class="node">
<title>../prueba/9326871.14.jpg</title>
<ellipse fill="none" stroke="#000000" cx="803.7339" cy="-2115.1639" rx="96.7474" ry="107.4605"/>
<image xlink:href="../prueba/9326871.14.jpg" width="180px" height="200px" preserveAspectRatio="xMinYMin meet" x="713.734" y="-2215.16"/>
</g>
<!-- ../prueba/9326871.10.jpg&#45;&gt;../prueba/9326871.14.jpg -->
<g id="edge3" class="edge">
<title>../prueba/9326871.10.jpg&#45;&gt;../prueba/9326871.14.jpg</title>
<path fill="none" stroke="#000000" d="M765.6394,-2761.1382C766.7561,-2748.8119 767.8156,-2736.4179 768.7339,-2724.5651 781.9702,-2553.7141 792.4496,-2355.5564 798.3737,-2232.7568"/>
<polygon fill="#000000" stroke="#000000" points="801.8786,-2232.7376 798.8625,-2222.5811 794.8866,-2232.4016 801.8786,-2232.7376"/>
</g>
<!-- ../prueba/9326871.15.jpg -->
<g id="node5" class="node">
<title>../prueba/9326871.15.jpg</title>
<ellipse fill="none" stroke="#000000" cx="553.7339" cy="-1864.2035" rx="96.7474" ry="107.4605"/>
<image xlink:href="../prueba/9326871.15.jpg" width="180px" height="200px" preserveAspectRatio="xMinYMin meet" x="463.734" y="-1964.2"/>
</g>
<!-- ../prueba/9326871.10.jpg&#45;&gt;../prueba/9326871.15.jpg -->
<g id="edge4" class="edge">
<title>../prueba/9326871.10.jpg&#45;&gt;../prueba/9326871.15.jpg</title>
<path fill="none" stroke="#000000" d="M750.3018,-2760.4307C746.8319,-2689.1562 741.1623,-2593.6625 732.7339,-2509.6046 721.4982,-2397.549 724.9741,-2367.9175 697.7339,-2258.6442 672.8256,-2158.725 631.5618,-2048.9788 599.5758,-1970.6729"/>
<polygon fill="#000000" stroke="#000000" points="602.7568,-1969.205 595.7228,-1961.282 596.2807,-1971.8621 602.7568,-1969.205"/>
</g>
<!-- ../prueba/9326871.16.jpg -->
<g id="node6" class="node">
<title>../prueba/9326871.16.jpg</title>
<ellipse fill="none" stroke="#000000" cx="933.7339" cy="-1613.243" rx="96.7474" ry="107.4605"/>
<image xlink:href="../prueba/9326871.16.jpg" width="180px" height="200px" preserveAspectRatio="xMinYMin meet" x="843.734" y="-1713.24"/>
</g>
<!-- ../prueba/9326871.10.jpg&#45;&gt;../prueba/9326871.16.jpg -->
<g id="edge5" class="edge">
<title>../prueba/9326871.10.jpg&#45;&gt;../prueba/9326871.16.jpg</title>
<path fill="none" stroke="#000000" d="M797.3352,-2771.4103C849.8592,-2647.1878 936.9267,-2423.5279 975.7339,-2222.6442 996.9183,-2112.9841 985.844,-2083.3338 988.7339,-1971.6837 991.2059,-1876.1777 1006.1224,-1850.6655 988.7339,-1756.7232 986.4735,-1744.5112 983.2163,-1731.9957 979.3996,-1719.6911"/>
<polygon fill="#000000" stroke="#000000" points="982.6336,-1718.3165 976.2271,-1709.878 975.9731,-1720.4698 982.6336,-1718.3165"/>
</g>
<!-- ../prueba/9326871.19.jpg -->
<g id="node7" class="node">
<title>../prueba/9326871.19.jpg</title>
<ellipse fill="none" stroke="#000000" cx="933.7339" cy="-1362.2825" rx="96.7474" ry="107.4605"/>
<image xlink:href="../prueba/9326871.19.jpg" width="180px" height="200px" preserveAspectRatio="xMinYMin meet" x="843.734" y="-1462.28"/>
</g>
<!-- ../prueba/9326871.10.jpg&#45;&gt;../prueba/9326871.19.jpg -->
<g id="edge6" class="edge">
<title>../prueba/9326871.10.jpg&#45;&gt;../prueba/9326871.19.jpg</title>
<path fill="none" stroke="#000000" d="M841.9266,-2820.4549C970.2002,-2743.3229 1194.7339,-2578.0423 1194.7339,-2366.1244 1194.7339,-2366.1244 1194.7339,-2366.1244 1194.7339,-2115.1639 1194.7339,-1837.9436 1187.6928,-1752.7151 1061.7339,-1505.7628 1049.6296,-1482.0314 1032.633,-1459.1526 1014.9706,-1438.9009"/>
<polygon fill="#000000" stroke="#000000" points="1017.4415,-1436.4126 1008.1775,-1431.2716 1012.2135,-1441.0676 1017.4415,-1436.4126"/>
</g>
<!-- ../prueba/9326871.1.jpg -->
<g id="node8" class="node">
<title>../prueba/9326871.1.jpg</title>
<ellipse fill="none" stroke="#000000" cx="586.7339" cy="-1111.3221" rx="96.7474" ry="107.4605"/>
<image xlink:href="../prueba/9326871.1.jpg" width="180px" height="200px" preserveAspectRatio="xMinYMin meet" x="496.734" y="-1211.32"/>
</g>
<!-- ../prueba/9326871.10.jpg&#45;&gt;../prueba/9326871.1.jpg -->
<g id="edge7" class="edge">
<title>../prueba/9326871.10.jpg&#45;&gt;../prueba/9326871.1.jpg</title>
<path fill="none" stroke="#000000" d="M662.111,-2836.3226C605.1603,-2812.8981 534.0844,-2776.0933 485.7339,-2724.5651 325.4305,-2553.7262 346.8537,-2455.8689 324.7339,-2222.6442 294.599,-1904.9097 275.5547,-1811.6216 366.7339,-1505.7628 401.4743,-1389.2266 413.8293,-1359.4704 475.7339,-1254.8023 486.9954,-1235.7613 500.4338,-1216.3673 514.0065,-1198.2475"/>
<polygon fill="#000000" stroke="#000000" points="516.9933,-1200.1013 520.2448,-1190.0177 511.4148,-1195.8727 516.9933,-1200.1013"/>
</g>
<!-- ../prueba/9326871.2.jpg -->
<g id="node9" class="node">
<title>../prueba/9326871.2.jpg</title>
<ellipse fill="none" stroke="#000000" cx="461.7339" cy="-860.3616" rx="96.7474" ry="107.4605"/>
<image xlink:href="../prueba/9326871.2.jpg" width="180px" height="200px" preserveAspectRatio="xMinYMin meet" x="371.734" y="-960.362"/>
</g>
<!-- ../prueba/9326871.10.jpg&#45;&gt;../prueba/9326871.2.jpg -->
<g id="edge8" class="edge">
<title>../prueba/9326871.10.jpg&#45;&gt;../prueba/9326871.2.jpg</title>
<path fill="none" stroke="#000000" d="M658.9148,-2850.3134C572.607,-2830.7116 445.5615,-2792.5206 353.7339,-2724.5651 194.0559,-2606.3981 86.7339,-2564.771 86.7339,-2366.1244 86.7339,-2366.1244 86.7339,-2366.1244 86.7339,-1864.2035 86.7339,-1464.3538 149.5246,-1349.9574 349.7339,-1003.8418 360.9167,-984.5094 374.4613,-964.9156 388.2114,-946.6782"/>
<polygon fill="#000000" stroke="#000000" points="391.246,-948.4713 394.5357,-938.4001 385.6835,-944.2217 391.246,-948.4713"/>
</g>
<!-- ../prueba/9326871.3.jpg -->
<g id="node10" class="node">
<title>../prueba/9326871.3.jpg</title>
<ellipse fill="none" stroke="#000000" cx="548.7339" cy="-609.4012" rx="96.7474" ry="107.4605"/>
<image xlink:href="../prueba/9326871.3.jpg" width="180px" height="200px" preserveAspectRatio="xMinYMin meet" x="458.734" y="-709.401"/>
</g>
<!-- ../prueba/9326871.10.jpg&#45;&gt;../prueba/9326871.3.jpg -->
<g id="edge9" class="edge">
<title>../prueba/9326871.10.jpg&#45;&gt;../prueba/9326871.3.jpg</title>
<path fill="none" stroke="#000000" d="M658.0069,-2859.2798C498.081,-2842.7543 188.8034,-2801.5388 114.7339,-2724.5651 2.4162,-2607.8436 48.7339,-2528.1094 48.7339,-2366.1244 48.7339,-2366.1244 48.7339,-2366.1244 48.7339,-1864.2035 48.7339,-1617.9166 161.9149,-785.9488 187.7339,-752.8814 248.9562,-674.4714 359.4765,-638.7848 442.1597,-622.6197"/>
<polygon fill="#000000" stroke="#000000" points="442.9225,-626.0377 452.0998,-620.7436 441.6242,-619.1591 442.9225,-626.0377"/>
</g>
<!-- ../prueba/9326871.7.jpg -->
<g id="node11" class="node">
<title>../prueba/9326871.7.jpg</title>
<ellipse fill="none" stroke="#000000" cx="977.7339" cy="-358.4407" rx="96.7474" ry="107.4605"/>
<image xlink:href="../prueba/9326871.7.jpg" width="180px" height="200px" preserveAspectRatio="xMinYMin meet" x="887.734" y="-458.441"/>
</g>
<!-- ../prueba/9326871.10.jpg&#45;&gt;../prueba/9326871.7.jpg -->
<g id="edge10" class="edge">
<title>../prueba/9326871.10.jpg&#45;&gt;../prueba/9326871.7.jpg</title>
<path fill="none" stroke="#000000" d="M849.4381,-2844.8378C921.0882,-2823.3714 1018.3257,-2785.4233 1085.7339,-2724.5651 1221.3017,-2602.1701 1286.7339,-2548.7693 1286.7339,-2366.1244 1286.7339,-2366.1244 1286.7339,-2366.1244 1286.7339,-860.3616 1286.7339,-695.3244 1285.6332,-636.2363 1189.7339,-501.9209 1185.3124,-495.7283 1124.9348,-455.0893 1069.7436,-418.6367"/>
<polygon fill="#000000" stroke="#000000" points="1071.5676,-415.647 1061.2932,-413.0611 1067.7125,-421.4898 1071.5676,-415.647"/>
</g>
<!-- ../prueba/9326871.8.jpg -->
<g id="node12" class="node">
<title>../prueba/9326871.8.jpg</title>
<ellipse fill="none" stroke="#000000" cx="673.7339" cy="-107.4802" rx="96.7474" ry="107.4605"/>
<image xlink:href="../prueba/9326871.8.jpg" width="180px" height="200px" preserveAspectRatio="xMinYMin meet" x="583.734" y="-207.48"/>
</g>
<!-- ../prueba/9326871.10.jpg&#45;&gt;../prueba/9326871.8.jpg -->
<g id="edge11" class="edge">
<title>../prueba/9326871.10.jpg&#45;&gt;../prueba/9326871.8.jpg</title>
<path fill="none" stroke="#000000" d="M851.3012,-2857.9994C947.0953,-2843.4487 1093.0485,-2808.3317 1188.7339,-2724.5651 1321.9751,-2607.9206 1362.7339,-2543.2096 1362.7339,-2366.1244 1362.7339,-2366.1244 1362.7339,-2366.1244 1362.7339,-609.4012 1362.7339,-441.1194 1366.8959,-362.3243 1240.7339,-250.9605 1172.8975,-191.0809 924.7063,-145.035 780.1582,-122.5831"/>
<polygon fill="#000000" stroke="#000000" points="780.3502,-119.0714 769.9338,-121.0074 779.284,-125.9897 780.3502,-119.0714"/>
</g>
<!-- ../prueba/9326871.11.jpg&#45;&gt;../prueba/9326871.12.jpg -->
<g id="edge12" class="edge">
<title>../prueba/9326871.11.jpg&#45;&gt;../prueba/9326871.12.jpg</title>
<path fill="none" stroke="#000000" d="M591.7339,-2509.5629C591.7339,-2501.0527 591.7339,-2492.43 591.7339,-2483.8557"/>
<polygon fill="#000000" stroke="#000000" points="595.234,-2483.822 591.7339,-2473.8221 588.234,-2483.8221 595.234,-2483.822"/>
</g>
<!-- ../prueba/9326871.11.jpg&#45;&gt;../prueba/9326871.14.jpg -->
<g id="edge13" class="edge">
<title>../prueba/9326871.11.jpg&#45;&gt;../prueba/9326871.14.jpg</title>
<path fill="none" stroke="#000000" d="M657.768,-2537.9534C672.3811,-2517.8345 686.7613,-2495.6458 697.7339,-2473.6046 736.1959,-2396.3442 763.3036,-2302.6191 780.4737,-2230.3883"/>
<polygon fill="#000000" stroke="#000000" points="783.9538,-2230.8779 782.8307,-2220.3428 777.1389,-2229.2789 783.9538,-2230.8779"/>
</g>
<!-- ../prueba/9326871.11.jpg&#45;&gt;../prueba/9326871.15.jpg -->
<g id="edge14" class="edge">
<title>../prueba/9326871.11.jpg&#45;&gt;../prueba/9326871.15.jpg</title>
<path fill="none" stroke="#000000" d="M522.403,-2541.7674C507.4081,-2521.1155 493.6776,-2497.7259 485.7339,-2473.6046 430.2935,-2305.2597 475.7266,-2098.1288 514.2751,-1973.8651"/>
<polygon fill="#000000" stroke="#000000" points="517.7305,-1974.5435 517.3896,-1963.9542 511.0525,-1972.4449 517.7305,-1974.5435"/>
</g>
<!-- ../prueba/9326871.11.jpg&#45;&gt;../prueba/9326871.16.jpg -->
<g id="edge15" class="edge">
<title>../prueba/9326871.11.jpg&#45;&gt;../prueba/9326871.16.jpg</title>
<path fill="none" stroke="#000000" d="M672.372,-2556.8586C758.0866,-2487.2995 888.5825,-2364.1136 942.7339,-2222.6442 1005.2036,-2059.4432 983.3258,-1853.1871 959.931,-1727.3502"/>
<polygon fill="#000000" stroke="#000000" points="963.3286,-1726.4801 958.0287,-1717.3062 956.4508,-1727.7828 963.3286,-1726.4801"/>
</g>
<!-- ../prueba/9326871.11.jpg&#45;&gt;../prueba/9326871.19.jpg -->
<g id="edge16" class="edge">
<title>../prueba/9326871.11.jpg&#45;&gt;../prueba/9326871.19.jpg</title>
<path fill="none" stroke="#000000" d="M684.2984,-2585.3073C741.2262,-2561.8612 812.2985,-2525.053 860.7339,-2473.6046 944.8342,-2384.2727 942.0333,-2340.6159 975.7339,-2222.6442 1019.6661,-2068.8555 1089.7634,-1657.6773 1039.7339,-1505.7628 1032.8451,-1484.8451 1021.6048,-1464.4776 1008.9618,-1445.9686"/>
<polygon fill="#000000" stroke="#000000" points="1011.686,-1443.7583 1003.0648,-1437.6 1005.9639,-1447.7904 1011.686,-1443.7583"/>
</g>
<!-- ../prueba/9326871.11.jpg&#45;&gt;../prueba/9326871.1.jpg -->
<g id="edge17" class="edge">
<title>../prueba/9326871.11.jpg&#45;&gt;../prueba/9326871.1.jpg</title>
<path fill="none" stroke="#000000" d="M513.4515,-2553.3325C491.099,-2530.6796 469.3907,-2503.3448 456.7339,-2473.6046 288.2767,-2077.7747 284.6375,-1905.0475 444.7339,-1505.7628 452.5918,-1486.1648 466.6842,-1488.8397 475.7339,-1469.7628 517.316,-1382.1063 482.9564,-1346.8104 513.7339,-1254.8023 518.4977,-1240.5611 524.4776,-1225.9774 530.9532,-1211.8223"/>
<polygon fill="#000000" stroke="#000000" points="534.2049,-1213.1311 535.2724,-1202.5902 527.8645,-1210.1648 534.2049,-1213.1311"/>
</g>
<!-- ../prueba/9326871.11.jpg&#45;&gt;../prueba/9326871.2.jpg -->
<g id="edge18" class="edge">
<title>../prueba/9326871.11.jpg&#45;&gt;../prueba/9326871.2.jpg</title>
<path fill="none" stroke="#000000" d="M500.9451,-2578.9538C455.2944,-2555.202 403.1354,-2520.2151 371.7339,-2473.6046 250.1859,-2293.186 163.7242,-1714.5751 224.7339,-1505.7628 230.0587,-1487.5381 239.4221,-1486.8334 247.7339,-1469.7628 328.8046,-1303.2612 394.3379,-1097.9631 430.6403,-973.2218"/>
<polygon fill="#000000" stroke="#000000" points="434.1033,-973.846 433.525,-963.267 427.3799,-971.8977 434.1033,-973.846"/>
</g>
<!-- ../prueba/9326871.11.jpg&#45;&gt;../prueba/9326871.3.jpg -->
<g id="edge19" class="edge">
<title>../prueba/9326871.11.jpg&#45;&gt;../prueba/9326871.3.jpg</title>
<path fill="none" stroke="#000000" d="M496.2638,-2597.2645C426.1762,-2577.7013 334.2225,-2540.6581 280.7339,-2473.6046 139.9545,-2297.1228 214.8351,-2197.1127 202.7339,-1971.6837 188.1986,-1700.9114 109.9642,-977.592 261.7339,-752.8814 284.4578,-719.2363 374.353,-677.3879 447.5578,-647.5862"/>
<polygon fill="#000000" stroke="#000000" points="448.8923,-650.8219 456.8525,-643.8301 446.2696,-644.3319 448.8923,-650.8219"/>
</g>
<!-- ../prueba/9326871.11.jpg&#45;&gt;../prueba/9326871.7.jpg -->
<g id="edge20" class="edge">
<title>../prueba/9326871.11.jpg&#45;&gt;../prueba/9326871.7.jpg</title>
<path fill="none" stroke="#000000" d="M687.158,-2596.2362C760.6467,-2575.874 860.5437,-2538.2654 926.7339,-2473.6046 1102.1289,-2302.2623 1089.0405,-2207.6362 1155.7339,-1971.6837 1252.7769,-1628.358 1198.1237,-950.6671 1186.7339,-752.8814 1180.2788,-640.7869 1223.585,-592.8631 1157.7339,-501.9209 1135.3412,-470.9961 1110.7645,-488.1668 1079.7339,-465.9209 1070.2603,-459.1292 1060.9447,-451.3745 1052.0281,-443.2105"/>
<polygon fill="#000000" stroke="#000000" points="1054.3224,-440.5637 1044.6372,-436.2685 1049.53,-445.666 1054.3224,-440.5637"/>
</g>
<!-- ../prueba/9326871.11.jpg&#45;&gt;../prueba/9326871.8.jpg -->
<g id="edge21" class="edge">
<title>../prueba/9326871.11.jpg&#45;&gt;../prueba/9326871.8.jpg</title>
<path fill="none" stroke="#000000" d="M497.778,-2588.772C385.9638,-2554.2699 211.6502,-2497.6114 190.7339,-2473.6046 -65.8955,-2179.0574 10.7339,-2003.9049 10.7339,-1613.243 10.7339,-1613.243 10.7339,-1613.243 10.7339,-609.4012 10.7339,-444.7072 -12.2718,-366.8646 104.7339,-250.9605 169.4074,-186.8958 421.0754,-142.3548 567.1427,-121.2995"/>
<polygon fill="#000000" stroke="#000000" points="568.0684,-124.7029 577.473,-119.8242 567.0786,-117.7732 568.0684,-124.7029"/>
</g>
<!-- ../prueba/9326871.12.jpg&#45;&gt;../prueba/9326871.14.jpg -->
<g id="edge22" class="edge">
<title>../prueba/9326871.12.jpg&#45;&gt;../prueba/9326871.14.jpg</title>
<path fill="none" stroke="#000000" d="M658.2303,-2287.4075C681.3174,-2260.0776 707.322,-2229.294 730.8939,-2201.3902"/>
<polygon fill="#000000" stroke="#000000" points="733.6939,-2203.4993 737.4734,-2193.6015 728.3464,-2198.982 733.6939,-2203.4993"/>
</g>
<!-- ../prueba/9326871.12.jpg&#45;&gt;../prueba/9326871.15.jpg -->
<g id="edge23" class="edge">
<title>../prueba/9326871.12.jpg&#45;&gt;../prueba/9326871.15.jpg</title>
<path fill="none" stroke="#000000" d="M583.6052,-2258.7577C577.4352,-2177.2609 568.9599,-2065.316 562.6128,-1981.4798"/>
<polygon fill="#000000" stroke="#000000" points="566.0946,-1981.1063 561.8496,-1971.3991 559.1146,-1981.6349 566.0946,-1981.1063"/>
</g>
<!-- ../prueba/9326871.12.jpg&#45;&gt;../prueba/9326871.16.jpg -->
<g id="edge24" class="edge">
<title>../prueba/9326871.12.jpg&#45;&gt;../prueba/9326871.16.jpg</title>
<path fill="none" stroke="#000000" d="M687.7699,-2350.5706C761.836,-2333.0676 859.796,-2296.7211 909.7339,-2222.6442 962.001,-2145.112 953.5709,-1884.4864 943.3179,-1730.3162"/>
<polygon fill="#000000" stroke="#000000" points="946.8086,-1730.0588 942.6406,-1720.3183 939.8246,-1730.532 946.8086,-1730.0588"/>
</g>
<!-- ../prueba/9326871.12.jpg&#45;&gt;../prueba/9326871.19.jpg -->
<g id="edge25" class="edge">
<title>../prueba/9326871.12.jpg&#45;&gt;../prueba/9326871.19.jpg</title>
<path fill="none" stroke="#000000" d="M612.2313,-2260.984C652.0567,-2061.9272 742.0083,-1638.104 810.7339,-1505.7628 822.4143,-1483.2704 838.2448,-1461.2881 854.6573,-1441.5561"/>
<polygon fill="#000000" stroke="#000000" points="857.418,-1443.712 861.2156,-1433.8212 852.0789,-1439.185 857.418,-1443.712"/>
</g>
<!-- ../prueba/9326871.12.jpg&#45;&gt;../prueba/9326871.1.jpg -->
<g id="edge26" class="edge">
<title>../prueba/9326871.12.jpg&#45;&gt;../prueba/9326871.1.jpg</title>
<path fill="none" stroke="#000000" d="M546.3262,-2271.0815C511.5617,-2192.7709 466.4892,-2077.748 447.7339,-1971.6837 408.5558,-1750.1247 466.0637,-1689.6511 513.7339,-1469.7628 531.3035,-1388.7195 549.9422,-1297.0955 563.9882,-1226.7699"/>
<polygon fill="#000000" stroke="#000000" points="567.5024,-1227.0438 566.0266,-1216.5523 560.6377,-1225.6743 567.5024,-1227.0438"/>
</g>
<!-- ../prueba/9326871.12.jpg&#45;&gt;../prueba/9326871.2.jpg -->
<g id="edge27" class="edge">
<title>../prueba/9326871.12.jpg&#45;&gt;../prueba/9326871.2.jpg</title>
<path fill="none" stroke="#000000" d="M512.8557,-2303.5641C489.4982,-2280.7111 466.5079,-2252.9562 452.7339,-2222.6442 406.4296,-2120.7435 436.4046,-2083.514 431.7339,-1971.6837 422.0431,-1739.6602 419.9324,-1267.8066 440.7339,-1003.8418 441.4383,-994.9029 442.3532,-985.6739 443.4064,-976.4087"/>
<polygon fill="#000000" stroke="#000000" points="446.8969,-976.6955 444.6001,-966.3526 439.9457,-975.8703 446.8969,-976.6955"/>
</g>
<!-- ../prueba/9326871.12.jpg&#45;&gt;../prueba/9326871.3.jpg -->
<g id="edge28" class="edge">
<title>../prueba/9326871.12.jpg&#45;&gt;../prueba/9326871.3.jpg</title>
<path fill="none" stroke="#000000" d="M507.0528,-2313.4173C475.6555,-2289.5511 442.8339,-2258.5884 422.7339,-2222.6442 312.8475,-2026.1378 295.1291,-1443.75 285.7339,-1218.8023 281.7471,-1123.3475 284.5921,-1099.373 285.7339,-1003.8418 287.0673,-892.28 234.1081,-848.4173 291.7339,-752.8814 325.4164,-697.0402 389.3834,-661.2174 445.0706,-639.3313"/>
<polygon fill="#000000" stroke="#000000" points="446.5536,-642.5115 454.6448,-635.6717 444.0542,-635.9729 446.5536,-642.5115"/>
</g>
<!-- ../prueba/9326871.12.jpg&#45;&gt;../prueba/9326871.7.jpg -->
<g id="edge29" class="edge">
<title>../prueba/9326871.12.jpg&#45;&gt;../prueba/9326871.7.jpg</title>
<path fill="none" stroke="#000000" d="M687.7832,-2350.2865C766.7098,-2332.403 876.0217,-2295.6731 942.7339,-2222.6442 1209.6901,-1930.4106 1172.7339,-1758.0932 1172.7339,-1362.2825 1172.7339,-1362.2825 1172.7339,-1362.2825 1172.7339,-860.3616 1172.7339,-698.9825 1187.2251,-646.1021 1114.7339,-501.9209 1104.7099,-481.9837 1095.1926,-482.0145 1079.7339,-465.9209 1071.7285,-457.5868 1063.3919,-448.868 1055.0867,-440.1562"/>
<polygon fill="#000000" stroke="#000000" points="1057.5573,-437.6753 1048.1258,-432.8485 1052.4888,-442.5033 1057.5573,-437.6753"/>
</g>
<!-- ../prueba/9326871.12.jpg&#45;&gt;../prueba/9326871.8.jpg -->
<g id="edge30" class="edge">
<title>../prueba/9326871.12.jpg&#45;&gt;../prueba/9326871.8.jpg</title>
<path fill="none" stroke="#000000" d="M499.5647,-2332.8217C448.351,-2309.6422 387.8575,-2273.6494 351.7339,-2222.6442 -5.0056,-1718.9404 81.7339,-1477.5978 81.7339,-860.3616 81.7339,-860.3616 81.7339,-860.3616 81.7339,-609.4012 81.7339,-418.1745 171.6278,-371.9243 319.7339,-250.9605 392.6048,-191.444 493.4368,-153.8267 568.854,-132.1157"/>
<polygon fill="#000000" stroke="#000000" points="570.184,-135.3768 578.8537,-129.287 568.2785,-128.6412 570.184,-135.3768"/>
</g>
<!-- ../prueba/9326871.14.jpg&#45;&gt;../prueba/9326871.15.jpg -->
<g id="edge31" class="edge">
<title>../prueba/9326871.14.jpg&#45;&gt;../prueba/9326871.15.jpg</title>
<path fill="none" stroke="#000000" d="M731.7589,-2042.9125C700.7806,-2011.8151 664.4686,-1975.3636 632.7477,-1943.5208"/>
<polygon fill="#000000" stroke="#000000" points="635.1707,-1940.9939 625.6336,-1936.3794 630.2115,-1945.9341 635.1707,-1940.9939"/>
</g>
<!-- ../prueba/9326871.14.jpg&#45;&gt;../prueba/9326871.16.jpg -->
<g id="edge32" class="edge">
<title>../prueba/9326871.14.jpg&#45;&gt;../prueba/9326871.16.jpg</title>
<path fill="none" stroke="#000000" d="M833.5093,-2012.6119C837.3604,-1998.8727 841.1927,-1984.9498 844.7339,-1971.6837 866.49,-1890.1814 889.3901,-1797.7825 906.5125,-1727.2123"/>
<polygon fill="#000000" stroke="#000000" points="909.936,-1727.9458 908.8895,-1717.4028 903.1328,-1726.2972 909.936,-1727.9458"/>
</g>
<!-- ../prueba/9326871.14.jpg&#45;&gt;../prueba/9326871.19.jpg -->
<g id="edge33" class="edge">
<title>../prueba/9326871.14.jpg&#45;&gt;../prueba/9326871.19.jpg</title>
<path fill="none" stroke="#000000" d="M806.3318,-2007.5795C810.6387,-1838.9095 819.5914,-1528.9418 827.7339,-1505.7628 834.9884,-1485.1114 846.3165,-1464.927 858.916,-1446.5256"/>
<polygon fill="#000000" stroke="#000000" points="861.8832,-1448.391 864.7844,-1438.2011 856.1619,-1444.3578 861.8832,-1448.391"/>
</g>
<!-- ../prueba/9326871.14.jpg&#45;&gt;../prueba/9326871.1.jpg -->
<g id="edge34" class="edge">
<title>../prueba/9326871.14.jpg&#45;&gt;../prueba/9326871.1.jpg</title>
<path fill="none" stroke="#000000" d="M782.8462,-2009.9725C768.5193,-1938.4839 748.8892,-1841.8121 730.7339,-1756.7232 690.9838,-1570.4258 642.2672,-1354.4922 612.9066,-1225.604"/>
<polygon fill="#000000" stroke="#000000" points="616.2863,-1224.6822 610.6518,-1215.7099 609.4613,-1226.2376 616.2863,-1224.6822"/>
</g>
<!-- ../prueba/9326871.14.jpg&#45;&gt;../prueba/9326871.2.jpg -->
<g id="edge35" class="edge">
<title>../prueba/9326871.14.jpg&#45;&gt;../prueba/9326871.2.jpg</title>
<path fill="none" stroke="#000000" d="M754.1319,-2022.7396C745.8671,-2005.9558 737.7216,-1988.4525 730.7339,-1971.6837 692.0324,-1878.8104 691.3957,-1852.2261 659.7339,-1756.7232 580.4443,-1517.5589 527.6013,-1466.3702 480.7339,-1218.8023 465.7086,-1139.4341 461.0279,-1048.5418 460.0683,-978.1449"/>
<polygon fill="#000000" stroke="#000000" points="463.5655,-977.8709 459.9529,-967.911 456.566,-977.9498 463.5655,-977.8709"/>
</g>
<!-- ../prueba/9326871.14.jpg&#45;&gt;../prueba/9326871.3.jpg -->
<g id="edge36" class="edge">
<title>../prueba/9326871.14.jpg&#45;&gt;../prueba/9326871.3.jpg</title>
<path fill="none" stroke="#000000" d="M801.8976,-2007.6142C796.5267,-1807.5315 775.4484,-1365.5776 692.7339,-1003.8418 669.7406,-903.2851 628.1723,-793.3848 595.5874,-715.1906"/>
<polygon fill="#000000" stroke="#000000" points="598.7519,-713.6859 591.6601,-705.8147 592.2954,-716.3905 598.7519,-713.6859"/>
</g>
<!-- ../prueba/9326871.14.jpg&#45;&gt;../prueba/9326871.7.jpg -->
<g id="edge37" class="edge">
<title>../prueba/9326871.14.jpg&#45;&gt;../prueba/9326871.7.jpg</title>
<path fill="none" stroke="#000000" d="M866.7716,-2033.4296C962.8082,-1900.4919 1134.7339,-1625.7172 1134.7339,-1362.2825 1134.7339,-1362.2825 1134.7339,-1362.2825 1134.7339,-860.3616 1134.7339,-698.6127 1131.2764,-652.3117 1071.7339,-501.9209 1064.7325,-484.2371 1055.374,-466.4465 1045.2701,-449.7031"/>
<polygon fill="#000000" stroke="#000000" points="1048.1586,-447.7192 1039.927,-441.0489 1042.2023,-451.3966 1048.1586,-447.7192"/>
</g>
<!-- ../prueba/9326871.14.jpg&#45;&gt;../prueba/9326871.8.jpg -->
<g id="edge38" class="edge">
<title>../prueba/9326871.14.jpg&#45;&gt;../prueba/9326871.8.jpg</title>
<path fill="none" stroke="#000000" d="M888.2549,-2061.8441C921.866,-2037.49 958.8511,-2006.3349 985.7339,-1971.6837 1104.4724,-1818.6325 1324.7339,-1242.1348 1324.7339,-1111.3221 1324.7339,-1111.3221 1324.7339,-1111.3221 1324.7339,-609.4012 1324.7339,-431.1353 1286.089,-359.5764 1144.7339,-250.9605 1037.4824,-168.5494 882.8745,-133.1987 780.4251,-118.2173"/>
<polygon fill="#000000" stroke="#000000" points="780.7608,-114.7299 770.3677,-116.7874 779.7755,-121.6602 780.7608,-114.7299"/>
</g>
<!-- ../prueba/9326871.15.jpg&#45;&gt;../prueba/9326871.16.jpg -->
<g id="edge39" class="edge">
<title>../prueba/9326871.15.jpg&#45;&gt;../prueba/9326871.16.jpg</title>
<path fill="none" stroke="#000000" d="M637.1265,-1809.1291C697.5338,-1769.2348 779.1978,-1715.3021 841.5433,-1674.1277"/>
<polygon fill="#000000" stroke="#000000" points="843.7925,-1676.8368 850.2081,-1668.4053 839.9348,-1670.9956 843.7925,-1676.8368"/>
</g>
<!-- ../prueba/9326871.15.jpg&#45;&gt;../prueba/9326871.19.jpg -->
<g id="edge40" class="edge">
<title>../prueba/9326871.15.jpg&#45;&gt;../prueba/9326871.19.jpg</title>
<path fill="none" stroke="#000000" d="M583.9195,-1761.8846C610.3143,-1685.173 654.555,-1580.9056 718.7339,-1505.7628 751.1803,-1467.7733 796.068,-1435.6902 836.4392,-1411.561"/>
<polygon fill="#000000" stroke="#000000" points="838.4026,-1414.4667 845.2463,-1406.3788 834.8527,-1408.4336 838.4026,-1414.4667"/>
</g>
<!-- ../prueba/9326871.15.jpg&#45;&gt;../prueba/9326871.1.jpg -->
<g id="edge41" class="edge">
<title>../prueba/9326871.15.jpg&#45;&gt;../prueba/9326871.1.jpg</title>
<path fill="none" stroke="#000000" d="M566.1499,-1757.2402C574.7012,-1677.9984 585.2918,-1567.3064 589.7339,-1469.7628 594.0801,-1374.3237 590.7325,-1350.3351 589.7339,-1254.8023 589.6468,-1246.4756 589.5314,-1237.8776 589.3964,-1229.221"/>
<polygon fill="#000000" stroke="#000000" points="592.8932,-1228.9859 589.2296,-1219.0447 585.8941,-1229.1007 592.8932,-1228.9859"/>
</g>
<!-- ../prueba/9326871.15.jpg&#45;&gt;../prueba/9326871.2.jpg -->
<g id="edge42" class="edge">
<title>../prueba/9326871.15.jpg&#45;&gt;../prueba/9326871.2.jpg</title>
<path fill="none" stroke="#000000" d="M535.1527,-1758.4476C532.9656,-1745.74 530.7842,-1732.9421 528.7339,-1720.7232 475.6711,-1404.5031 432.1462,-1324.104 447.7339,-1003.8418 448.1538,-995.2144 448.7149,-986.3056 449.3716,-977.3479"/>
<polygon fill="#000000" stroke="#000000" points="452.8728,-977.4653 450.1511,-967.2261 445.8935,-976.9277 452.8728,-977.4653"/>
</g>
<!-- ../prueba/9326871.15.jpg&#45;&gt;../prueba/9326871.3.jpg -->
<g id="edge43" class="edge">
<title>../prueba/9326871.15.jpg&#45;&gt;../prueba/9326871.3.jpg</title>
<path fill="none" stroke="#000000" d="M501.6133,-1773.4257C396.0253,-1576.5792 181.1377,-1100.2378 355.7339,-752.8814 376.0875,-712.3882 413.8798,-680.4384 450.663,-657.067"/>
<polygon fill="#000000" stroke="#000000" points="452.8182,-659.8494 459.4806,-651.6115 449.1352,-653.8966 452.8182,-659.8494"/>
</g>
<!-- ../prueba/9326871.15.jpg&#45;&gt;../prueba/9326871.7.jpg -->
<g id="edge44" class="edge">
<title>../prueba/9326871.15.jpg&#45;&gt;../prueba/9326871.7.jpg</title>
<path fill="none" stroke="#000000" d="M582.627,-1761.5947C659.0986,-1490.019 866.3553,-753.9826 945.9819,-471.2025"/>
<polygon fill="#000000" stroke="#000000" points="949.4186,-471.9102 948.7602,-461.3358 942.6807,-470.0128 949.4186,-471.9102"/>
</g>
<!-- ../prueba/9326871.15.jpg&#45;&gt;../prueba/9326871.8.jpg -->
<g id="edge45" class="edge">
<title>../prueba/9326871.15.jpg&#45;&gt;../prueba/9326871.8.jpg</title>
<path fill="none" stroke="#000000" d="M469.3738,-1810.8667C437.2649,-1786.8119 402.8763,-1755.8807 379.7339,-1720.7232 141.4749,-1358.765 183.7539,-1179.1445 261.7339,-752.8814 304.6568,-518.2511 301.8539,-436.513 451.7339,-250.9605 484.6464,-210.2145 532.3401,-177.2805 575.0922,-153.2921"/>
<polygon fill="#000000" stroke="#000000" points="576.7848,-156.3558 583.8515,-148.4619 573.4045,-150.226 576.7848,-156.3558"/>
</g>
<!-- ../prueba/9326871.16.jpg&#45;&gt;../prueba/9326871.19.jpg -->
<g id="edge46" class="edge">
<title>../prueba/9326871.16.jpg&#45;&gt;../prueba/9326871.19.jpg</title>
<path fill="none" stroke="#000000" d="M933.7339,-1505.721C933.7339,-1497.2108 933.7339,-1488.5881 933.7339,-1480.0138"/>
<polygon fill="#000000" stroke="#000000" points="937.234,-1479.9802 933.7339,-1469.9802 930.234,-1479.9803 937.234,-1479.9802"/>
</g>
<!-- ../prueba/9326871.16.jpg&#45;&gt;../prueba/9326871.1.jpg -->
<g id="edge47" class="edge">
<title>../prueba/9326871.16.jpg&#45;&gt;../prueba/9326871.1.jpg</title>
<path fill="none" stroke="#000000" d="M871.7268,-1530.6194C857.1275,-1510.8076 841.7429,-1489.6324 827.7339,-1469.7628 765.7625,-1381.866 697.5873,-1279.9538 649.6099,-1207.3174"/>
<polygon fill="#000000" stroke="#000000" points="652.2907,-1205.0253 643.8609,-1198.6074 646.4485,-1208.8814 652.2907,-1205.0253"/>
</g>
<!-- ../prueba/9326871.16.jpg&#45;&gt;../prueba/9326871.2.jpg -->
<g id="edge48" class="edge">
<title>../prueba/9326871.16.jpg&#45;&gt;../prueba/9326871.2.jpg</title>
<path fill="none" stroke="#000000" d="M867.6132,-1534.1545C853.003,-1514.0342 838.6458,-1491.8341 827.7339,-1469.7628 803.8467,-1421.4468 725.2883,-1046.7981 692.7339,-1003.8418 659.1841,-959.5722 607.6795,-925.6879 561.8105,-901.9936"/>
<polygon fill="#000000" stroke="#000000" points="563.2215,-898.785 552.7188,-897.3906 560.0595,-905.0302 563.2215,-898.785"/>
</g>
<!-- ../prueba/9326871.16.jpg&#45;&gt;../prueba/9326871.3.jpg -->
<g id="edge49" class="edge">
<title>../prueba/9326871.16.jpg&#45;&gt;../prueba/9326871.3.jpg</title>
<path fill="none" stroke="#000000" d="M1003.0648,-1537.9256C1018.0597,-1517.2737 1031.7901,-1493.884 1039.7339,-1469.7628 1069.6182,-1379.019 1061.9823,-1347.7136 1039.7339,-1254.8023 981.4652,-1011.467 954.7953,-936.42 784.7339,-752.8814 773.3767,-740.6242 704.4159,-699.1747 643.9502,-663.9581"/>
<polygon fill="#000000" stroke="#000000" points="645.5027,-660.8122 635.0985,-658.8116 641.9843,-666.8638 645.5027,-660.8122"/>
</g>
<!-- ../prueba/9326871.16.jpg&#45;&gt;../prueba/9326871.7.jpg -->
<g id="edge50" class="edge">
<title>../prueba/9326871.16.jpg&#45;&gt;../prueba/9326871.7.jpg</title>
<path fill="none" stroke="#000000" d="M1009.8214,-1546.4168C1030.4287,-1524.1637 1050.4199,-1497.8304 1062.7339,-1469.7628 1127.0245,-1323.2234 1096.7339,-1271.3441 1096.7339,-1111.3221 1096.7339,-1111.3221 1096.7339,-1111.3221 1096.7339,-860.3616 1096.7339,-721.9857 1053.3816,-567.7985 1019.0099,-467.2977"/>
<polygon fill="#000000" stroke="#000000" points="1022.2832,-466.0537 1015.7134,-457.7418 1015.6659,-468.3365 1022.2832,-466.0537"/>
</g>
<!-- ../prueba/9326871.16.jpg&#45;&gt;../prueba/9326871.8.jpg -->
<g id="edge51" class="edge">
<title>../prueba/9326871.16.jpg&#45;&gt;../prueba/9326871.8.jpg</title>
<path fill="none" stroke="#000000" d="M1017.1029,-1558.0287C1046.679,-1534.2933 1077.3909,-1504.0841 1096.7339,-1469.7628 1308.8409,-1093.4102 1270.328,-925.7637 1186.7339,-501.9209 1163.4041,-383.6329 1171.2093,-333.9326 1083.7339,-250.9605 1000.5397,-172.0491 871.5349,-136.2601 780.486,-120.2065"/>
<polygon fill="#000000" stroke="#000000" points="780.8579,-116.7194 770.4109,-118.483 779.6776,-123.6191 780.8579,-116.7194"/>
</g>
<!-- ../prueba/9326871.19.jpg&#45;&gt;../prueba/9326871.1.jpg -->
<g id="edge52" class="edge">
<title>../prueba/9326871.19.jpg&#45;&gt;../prueba/9326871.1.jpg</title>
<path fill="none" stroke="#000000" d="M862.6998,-1289.0251C849.8354,-1277.0763 836.2135,-1265.2159 822.7339,-1254.8023 779.0668,-1221.0676 726.9695,-1188.6687 682.8452,-1163.2215"/>
<polygon fill="#000000" stroke="#000000" points="684.5478,-1160.1632 674.1315,-1158.2264 681.0664,-1166.2362 684.5478,-1160.1632"/>
</g>
<!-- ../prueba/9326871.19.jpg&#45;&gt;../prueba/9326871.2.jpg -->
<g id="edge53" class="edge">
<title>../prueba/9326871.19.jpg&#45;&gt;../prueba/9326871.2.jpg</title>
<path fill="none" stroke="#000000" d="M878.9857,-1273.4754C868.7731,-1255.6316 858.5519,-1236.8213 849.7339,-1218.8023 804.503,-1126.3761 834.1691,-1078.8574 763.7339,-1003.8418 710.5401,-947.1889 630.3899,-910.5504 566.0252,-888.4868"/>
<polygon fill="#000000" stroke="#000000" points="566.8373,-885.0675 556.2433,-885.2033 564.6098,-891.7036 566.8373,-885.0675"/>
</g>
<!-- ../prueba/9326871.19.jpg&#45;&gt;../prueba/9326871.3.jpg -->
<g id="edge54" class="edge">
<title>../prueba/9326871.19.jpg&#45;&gt;../prueba/9326871.3.jpg</title>
<path fill="none" stroke="#000000" d="M906.4076,-1259.0071C865.0908,-1107.8116 785.2356,-835.2235 725.7339,-752.8814 702.7643,-721.0946 671.0396,-692.4092 640.7859,-669.1903"/>
<polygon fill="#000000" stroke="#000000" points="642.8075,-666.331 632.7179,-663.0983 638.5893,-671.9174 642.8075,-666.331"/>
</g>
<!-- ../prueba/9326871.19.jpg&#45;&gt;../prueba/9326871.7.jpg -->
<g id="edge55" class="edge">
<title>../prueba/9326871.19.jpg&#45;&gt;../prueba/9326871.7.jpg</title>
<path fill="none" stroke="#000000" d="M938.4427,-1254.8539C946.7558,-1065.1931 963.9674,-672.5183 972.5842,-475.9288"/>
<polygon fill="#000000" stroke="#000000" points="976.0844,-475.9982 973.0258,-465.8545 969.0911,-475.6916 976.0844,-475.9982"/>
</g>
<!-- ../prueba/9326871.19.jpg&#45;&gt;../prueba/9326871.8.jpg -->
<g id="edge56" class="edge">
<title>../prueba/9326871.19.jpg&#45;&gt;../prueba/9326871.8.jpg</title>
<path fill="none" stroke="#000000" d="M918.2988,-1256.114C907.4772,-1184.6208 892.0724,-1088.3243 875.7339,-1003.8418 821.0157,-720.9076 742.9336,-390.9289 701.71,-221.1939"/>
<polygon fill="#000000" stroke="#000000" points="705.0541,-220.133 699.2908,-211.2428 698.2522,-221.7866 705.0541,-220.133"/>
</g>
<!-- ../prueba/9326871.1.jpg&#45;&gt;../prueba/9326871.2.jpg -->
<g id="edge57" class="edge">
<title>../prueba/9326871.1.jpg&#45;&gt;../prueba/9326871.2.jpg</title>
<path fill="none" stroke="#000000" d="M539.8329,-1017.1597C531.1609,-999.7492 522.061,-981.4793 513.2607,-963.8111"/>
<polygon fill="#000000" stroke="#000000" points="516.2812,-962.0249 508.6898,-954.6343 510.0154,-965.1459 516.2812,-962.0249"/>
</g>
<!-- ../prueba/9326871.1.jpg&#45;&gt;../prueba/9326871.3.jpg -->
<g id="edge58" class="edge">
<title>../prueba/9326871.1.jpg&#45;&gt;../prueba/9326871.3.jpg</title>
<path fill="none" stroke="#000000" d="M583.2413,-1003.7219C580.384,-932.4534 575.5171,-836.961 567.7339,-752.8814 566.9174,-744.0617 565.9656,-734.9506 564.9311,-725.7954"/>
<polygon fill="#000000" stroke="#000000" points="568.4072,-725.3858 563.7787,-715.8554 561.4538,-726.192 568.4072,-725.3858"/>
</g>
<!-- ../prueba/9326871.1.jpg&#45;&gt;../prueba/9326871.7.jpg -->
<g id="edge59" class="edge">
<title>../prueba/9326871.1.jpg&#45;&gt;../prueba/9326871.7.jpg</title>
<path fill="none" stroke="#000000" d="M651.0041,-1030.5309C664.5517,-1010.824 677.7479,-989.2343 687.7339,-967.8418 778.3723,-773.6709 698.0774,-683.5796 811.7339,-501.9209 831.1254,-470.9272 859.3092,-443.0061 886.967,-420.21"/>
<polygon fill="#000000" stroke="#000000" points="889.1722,-422.9279 894.7463,-413.9179 884.7701,-417.4853 889.1722,-422.9279"/>
</g>
<!-- ../prueba/9326871.1.jpg&#45;&gt;../prueba/9326871.8.jpg -->
<g id="edge60" class="edge">
<title>../prueba/9326871.1.jpg&#45;&gt;../prueba/9326871.8.jpg</title>
<path fill="none" stroke="#000000" d="M608.9315,-1006.3986C624.6759,-927.236 644.7202,-815.7455 654.7339,-716.8814 671.9824,-546.5885 675.0214,-348.2839 674.92,-225.3002"/>
<polygon fill="#000000" stroke="#000000" points="678.4198,-225.1036 674.9043,-215.109 671.4198,-225.1144 678.4198,-225.1036"/>
</g>
<!-- ../prueba/9326871.2.jpg&#45;&gt;../prueba/9326871.3.jpg -->
<g id="edge61" class="edge">
<title>../prueba/9326871.2.jpg&#45;&gt;../prueba/9326871.3.jpg</title>
<path fill="none" stroke="#000000" d="M496.6188,-759.7324C501.1837,-746.5646 505.8804,-733.0165 510.4968,-719.6998"/>
<polygon fill="#000000" stroke="#000000" points="513.8725,-720.6477 513.8411,-710.0529 507.2587,-718.3549 513.8725,-720.6477"/>
</g>
<!-- ../prueba/9326871.2.jpg&#45;&gt;../prueba/9326871.7.jpg -->
<g id="edge62" class="edge">
<title>../prueba/9326871.2.jpg&#45;&gt;../prueba/9326871.7.jpg</title>
<path fill="none" stroke="#000000" d="M547.0132,-808.6532C583.1612,-783.9448 623.9505,-752.0818 654.7339,-716.8814 726.6205,-634.6801 700.7719,-583.1693 773.7339,-501.9209 804.6685,-467.4731 845.3514,-436.7702 882.2422,-412.6937"/>
<polygon fill="#000000" stroke="#000000" points="884.5216,-415.3888 891.0346,-407.0323 880.7319,-409.5033 884.5216,-415.3888"/>
</g>
<!-- ../prueba/9326871.2.jpg&#45;&gt;../prueba/9326871.8.jpg -->
<g id="edge63" class="edge">
<title>../prueba/9326871.2.jpg&#45;&gt;../prueba/9326871.8.jpg</title>
<path fill="none" stroke="#000000" d="M439.6905,-755.5638C428.4443,-683.1901 421.1769,-585.3331 442.7339,-501.9209 472.4301,-387.0151 546.2635,-271.7507 602.5313,-195.7605"/>
<polygon fill="#000000" stroke="#000000" points="605.4357,-197.7207 608.6091,-187.6123 599.8246,-193.5354 605.4357,-197.7207"/>
</g>
<!-- ../prueba/9326871.3.jpg&#45;&gt;../prueba/9326871.7.jpg -->
<g id="edge64" class="edge">
<title>../prueba/9326871.3.jpg&#45;&gt;../prueba/9326871.7.jpg</title>
<path fill="none" stroke="#000000" d="M628.7985,-548.264C650.6996,-532.4822 674.7458,-515.9905 697.7339,-501.9209 756.0878,-466.2061 824.3684,-431.0924 878.8927,-404.5413"/>
<polygon fill="#000000" stroke="#000000" points="880.7428,-407.534 888.2129,-400.0208 877.688,-401.2357 880.7428,-407.534"/>
</g>
<!-- ../prueba/9326871.3.jpg&#45;&gt;../prueba/9326871.8.jpg -->
<g id="edge65" class="edge">
<title>../prueba/9326871.3.jpg&#45;&gt;../prueba/9326871.8.jpg</title>
<path fill="none" stroke="#000000" d="M574.5581,-505.7073C595.2092,-422.7857 624.1269,-306.6704 645.4098,-221.2118"/>
<polygon fill="#000000" stroke="#000000" points="648.8152,-222.0209 647.8356,-211.4714 642.0226,-220.3292 648.8152,-222.0209"/>
</g>
<!-- ../prueba/9326871.7.jpg&#45;&gt;../prueba/9326871.8.jpg -->
<g id="edge66" class="edge">
<title>../prueba/9326871.7.jpg&#45;&gt;../prueba/9326871.8.jpg</title>
<path fill="none" stroke="#000000" d="M899.8411,-294.138C856.9416,-258.7233 803.6149,-214.7006 759.5254,-178.3035"/>
<polygon fill="#000000" stroke="#000000" points="761.6279,-175.5006 751.6879,-171.8335 757.1715,-180.8989 761.6279,-175.5006"/>
</g>
</g>
</svg>
